# xmcd
#
# Track frame offsets:
#	150
#	19322
#	37297
#	61182
#	79015
#	98645
#	120817
#	147095
#	165947
#	185785
#	202605
#	221910
#	246327
#	263635
#
# Disc length: 3908 seconds
# Revision: 5
# Processed by: cddbd v1.5.2PL0 Copyright (c) Steve Scherf et al.
# Submitted via: dBpowerAMP V12.0
#
DISCID=b50f5d0e,ba0f420e
DTITLE=Janis Joplin - Big Brother and the Holding Company/Janis Joplin's Greatest Hits/Live at Winterland '68, Disc 1
DYEAR=2001
DGENRE=Rock
TTITLE0=Piece of My Heart
TTITLE1=Summertime
TTITLE2=To Love Somebody
TTITLE3=Light Is Faster Than Sound
TTITLE4=Turtle Blues
TTITLE5=I Need a Man to Love
TTITLE6=Combination of the Two
TTITLE7=One Good Man
TTITLE8=Kozmic Blues
TTITLE9=Maybe
TTITLE10=Oh, Sweet Mary
TTITLE11=The Last Time
TTITLE12=Little Girl Blue
TTITLE13=Work Me, Lord
EXTD=
EXTT0=
EXTT1=
EXTT2=
EXTT3=
EXTT4=
EXTT5=
EXTT6=
EXTT7=
EXTT8=
EXTT9=
EXTT10=
EXTT11=
EXTT12=
EXTT13=
PLAYORDER=
